<svg xmlns="http://www.w3.org/2000/svg" width="256" height="256" viewBox="0 0 100 100"><rect width="100" height="100" rx="50" fill="#05a8ad"></rect><path fill="#ffffff" d="M23.14 64L13.18 64Q12.78 64 12.50 63.72Q12.22 63.44 12.22 63.04L12.22 63.04L12.22 37Q12.22 36.56 12.50 36.28Q12.78 36 13.18 36L13.18 36L22.94 36Q26.98 36 29.60 37.24Q32.22 38.48 33.56 40.92Q34.90 43.36 34.94 46.88L34.94 46.88Q35.02 48.64 35.02 50Q35.02 51.36 34.94 53.08L34.94 53.08Q34.86 56.80 33.58 59.22Q32.30 61.64 29.72 62.82Q27.14 64 23.14 64L23.14 64ZM17.78 40.60L17.78 59.40L22.94 59.40Q25.18 59.40 26.58 58.76Q27.98 58.12 28.64 56.70Q29.30 55.28 29.34 52.96L29.34 52.96Q29.38 51.76 29.40 50.86Q29.42 49.96 29.40 49.06Q29.38 48.16 29.34 47L29.34 47Q29.26 43.72 27.70 42.16Q26.14 40.60 22.74 40.60L22.74 40.60L17.78 40.60ZM51.26 64L41.30 64Q40.90 64 40.62 63.72Q40.34 63.44 40.34 63.04L40.34 63.04L40.34 37Q40.34 36.56 40.62 36.28Q40.90 36 41.30 36L41.30 36L51.06 36Q55.10 36 57.72 37.24Q60.34 38.48 61.68 40.92Q63.02 43.36 63.06 46.88L63.06 46.88Q63.14 48.64 63.14 50Q63.14 51.36 63.06 53.08L63.06 53.08Q62.98 56.80 61.70 59.22Q60.42 61.64 57.84 62.82Q55.26 64 51.26 64L51.26 64ZM45.90 40.60L45.90 59.40L51.06 59.40Q53.30 59.40 54.70 58.76Q56.10 58.12 56.76 56.70Q57.42 55.28 57.46 52.96L57.46 52.96Q57.50 51.76 57.52 50.86Q57.54 49.96 57.52 49.06Q57.50 48.16 57.46 47L57.46 47Q57.38 43.72 55.82 42.16Q54.26 40.60 50.86 40.60L50.86 40.60L45.90 40.60ZM72.94 64L69.42 64Q69.02 64 68.74 63.72Q68.46 63.44 68.46 63.04L68.46 63.04L68.46 37Q68.46 36.56 68.74 36.28Q69.02 36 69.42 36L69.42 36L86.78 36Q87.22 36 87.50 36.28Q87.78 36.56 87.78 37L87.78 37L87.78 39.80Q87.78 40.24 87.50 40.50Q87.22 40.76 86.78 40.76L86.78 40.76L73.94 40.76L73.94 48.36L85.98 48.36Q86.42 48.36 86.70 48.64Q86.98 48.92 86.98 49.36L86.98 49.36L86.98 52.16Q86.98 52.56 86.70 52.84Q86.42 53.12 85.98 53.12L85.98 53.12L73.94 53.12L73.94 63.04Q73.94 63.44 73.66 63.72Q73.38 64 72.94 64L72.94 64Z"></path></svg>